# xmcd CD database file
# Copyright (C) 1993-1998 Ti Kan
#
# Track frame offsets:
#	150
#	11830
#	22332
#	34060
#	46000
#	58947
#	70887
#	87070
#	98350
#	110567
#	124272
#	134782
#	147350
#	159335
#	169675
#	185530
#
# Disc length: 2618 seconds
#
# Revision: 1
# Processed by: cddbd v1.4b41PL1 Copyright (c) Steve Scherf et al.
# Submitted via: CDValet v3.31 - Copyright (c) 1997 Greg Leichner
#
DISCID=df0a3810
DTITLE=John Lee Hooker - John Lee Hooker (Digitally Remastered)
DYEAR=1900
DGENRE=
TTITLE0=Boom Boom
TTITLE1=Big Legs Tight Skirt
TTITLE2=Will The Circle Be Unbroken
TTITLE3=Boogie Chillun
TTITLE4=Hobo Blues
TTITLE5=Solid Sender
TTITLE6=It Serves Me Right To Suffer
TTITLE7=This Is Hip
TTITLE8=Crawlin' Kingsnake
TTITLE9=Every Night
TTITLE10=Maudie
TTITLE11=I'm In The Mood
TTITLE12=Little Wheel
TTITLE13=Dimples
TTITLE14=Hey Baby
TTITLE15=No Shoes
EXTD=STAR POWER\nBELL RECORDS\nBLR 89 408\n\nISRC Code DEC 5298
EXTD=00 601-616\nManufactured by: Bell Music GmbH, Germany\nCD-
EXTD=Mastering: TACET Musikproduktion\nRe-Mastered by: S.Ollap/
EXTD=A.Spreer\nLicensed by: G.A.P. Inc.\nCoverdesign: Peter Mal
EXTD=tz\nPrinted in Germany
EXTT0=
EXTT1=
EXTT2=
EXTT3=
EXTT4=
EXTT5=
EXTT6=
EXTT7=
EXTT8=
EXTT9=
EXTT10=
EXTT11=
EXTT12=
EXTT13=
EXTT14=
EXTT15=
PLAYORDER=
